<?xml version="1.0" encoding="UTF-8" standalone="no"?>
<!-- Created with Inkscape (http://www.inkscape.org/) -->

<svg
   width="4.6544881mm"
   height="4.0810819mm"
   viewBox="0 0 4.6544881 4.0810819"
   version="1.1"
   id="svg1"
   xml:space="preserve"
   xmlns:inkscape="http://www.inkscape.org/namespaces/inkscape"
   xmlns:sodipodi="http://sodipodi.sourceforge.net/DTD/sodipodi-0.dtd"
   xmlns="http://www.w3.org/2000/svg"
   xmlns:svg="http://www.w3.org/2000/svg"><sodipodi:namedview
     id="namedview1"
     pagecolor="#ffffff"
     bordercolor="#000000"
     borderopacity="0.25"
     inkscape:showpageshadow="2"
     inkscape:pageopacity="0.0"
     inkscape:pagecheckerboard="0"
     inkscape:deskcolor="#d1d1d1"
     inkscape:document-units="mm"
     showgrid="false"
     inkscape:export-bgcolor="#00000000" /><defs
     id="defs1" /><g
     inkscape:label="Calque 1"
     inkscape:groupmode="layer"
     id="layer1"
     transform="translate(-104.73523,-155.60565)"><path
       d="m 107.40916,155.80873 1.94707,3.48457 a 0.26458333,0.26458333 0 0 1 -0.23098,0.39343 h -4.12538 a 0.26458333,0.26458333 0 0 1 -0.23099,-0.3937 l 1.94734,-3.4843 a 0.396875,0.396875 0 0 1 0.69268,0 z m -0.3466,0.83529 a 0.28866042,0.28866042 0 0 0 -0.28602,0.32782 l 0.13573,0.99642 a 0.15160625,0.15160625 0 0 0 0.30057,0 l 0.13573,-0.99642 a 0.28866042,0.28866042 0 0 0 -0.28601,-0.32782 z m 0,2.28336 a 0.29765625,0.29765625 0 1 0 0,-0.59531 0.29765625,0.29765625 0 0 0 0,0.59531 z"
       fill="currentColor"
       fill-rule="evenodd"
       id="path1-07"
       style="fill:#ff9900;stroke-width:0.264583" /></g></svg>
