<?xml version="1.0" encoding="UTF-8" standalone="no"?>
<svg
   width="24"
   height="24"
   viewBox="0 0 24 24"
   version="1.1"
   id="svg2"
   sodipodi:docname="person-circle.svg"
   inkscape:version="1.3 (0e150ed6c4, 2023-07-21)"
   xmlns:inkscape="http://www.inkscape.org/namespaces/inkscape"
   xmlns:sodipodi="http://sodipodi.sourceforge.net/DTD/sodipodi-0.dtd"
   xmlns="http://www.w3.org/2000/svg"
   xmlns:svg="http://www.w3.org/2000/svg">
  <defs
     id="defs2" />
  <sodipodi:namedview
     id="namedview2"
     pagecolor="#ffffff"
     bordercolor="#000000"
     borderopacity="0.25"
     inkscape:showpageshadow="2"
     inkscape:pageopacity="0.0"
     inkscape:pagecheckerboard="0"
     inkscape:deskcolor="#d1d1d1"
     inkscape:zoom="35.625"
     inkscape:cx="11.985965"
     inkscape:cy="12"
     inkscape:window-width="1920"
     inkscape:window-height="1111"
     inkscape:window-x="-9"
     inkscape:window-y="-9"
     inkscape:window-maximized="1"
     inkscape:current-layer="svg2" />
  <g
     fill="currentColor"
     fill-rule="evenodd"
     id="g2"
     style="fill:#0000ff">
    <path
       d="M14.5 13.009h-5c-1.38 0-2.5 1.12-2.5 2.503v3.978a8.951 8.951 0 005 1.519 8.95 8.95 0 005-1.519v-3.978a2.502 2.502 0 00-2.5-2.503"
       id="path1"
       style="fill:#0000ff" />
    <circle
       cx="12"
       cy="9"
       r="3"
       id="circle1"
       style="fill:#0000ff" />
    <path
       d="M12 20a8 8 0 100-16 8 8 0 000 16zm0 2C6.477 22 2 17.523 2 12S6.477 2 12 2s10 4.477 10 10-4.477 10-10 10z"
       fill-rule="nonzero"
       id="path2"
       style="fill:#0000ff" />
  </g>
</svg>
