<?xml version="1.0" encoding="UTF-8" standalone="no"?>
<!-- Created with Inkscape (http://www.inkscape.org/) -->

<svg
   width="34.974171mm"
   height="24.982222mm"
   viewBox="0 0 34.974171 24.982222"
   version="1.1"
   id="svg1"
   xml:space="preserve"
   xmlns="http://www.w3.org/2000/svg"
   xmlns:svg="http://www.w3.org/2000/svg"><defs
     id="defs1" /><g
     id="layer1"
     transform="translate(-65.737431,-208.86612)"><path
       d="m 76.34413,209.55918 -9.964492,10.20775 a 2.1861557,2.244437 0 0 0 -0.0021,3.17585 v 0.003 l 9.966639,10.20986 a 2.2998358,2.3611477 0 0 0 3.255229,-3.33523 l -0.0022,-0.003 -8.252721,-8.46152 8.252721,-8.45705 a 2.2976497,2.3589033 0 0 0 0.0043,-3.33523 l -0.0021,-0.003 a 2.2998358,2.3611477 0 0 0 -3.255229,-0.003 z m 10.506686,0.003 a 2.2954635,2.3566588 0 0 0 0,3.3353 v 0.003 l 8.257098,8.45925 -8.254867,8.45933 a 2.2954635,2.3566588 0 0 0 0,3.33744 2.2998358,2.3611477 0 0 0 3.253001,0 l 9.964482,-10.20544 a 2.1861557,2.244437 0 0 0 0.002,-3.17362 v -0.005 l -9.96664,-10.21218 a 2.2954635,2.3566588 0 0 0 -1.626499,-0.68879 2.2954635,2.3566588 0 0 0 -1.628728,0.69136 z"
       fill="currentColor"
       fill-rule="evenodd"
       id="path1-09"
       style="fill:#6699ff;stroke-width:2.2151" /></g></svg>
