<?xml version="1.0" encoding="UTF-8" standalone="no"?>
<!-- Created with Inkscape (http://www.inkscape.org/) -->

<svg
   width="41.516468mm"
   height="42.644299mm"
   viewBox="0 0 41.516468 42.644299"
   version="1.1"
   id="svg1"
   xml:space="preserve"
   xmlns="http://www.w3.org/2000/svg"
   xmlns:svg="http://www.w3.org/2000/svg"><defs
     id="defs1" /><g
     id="layer1"
     transform="translate(-19.835963,-194.82573)"><path
       d="m 39.380237,215.02567 a 14.161917,14.539462 0 0 0 -3.956977,10.09999 c 0,3.64944 1.305165,6.98467 3.460722,9.54328 -7.765225,1.56214 -19.048019,-0.16107 -19.048019,-5.17567 v -9.97872 c 0,-2.48013 1.971961,-4.48888 4.392005,-4.48888 h 15.150038 z m -6.42734,-2.24443 a 8.7446366,8.9777617 0 1 1 0,-17.9555 8.7446366,8.9777617 0 0 1 0,17.9555 z m 16.39621,24.68877 a 12.023856,12.344403 0 1 1 0,-24.68877 12.023856,12.344403 0 0 1 0,24.68877 z m 0,-4.48881 a 7.6515765,7.8555617 0 1 0 0,-15.71112 7.6515765,7.8555617 0 0 0 0,15.71112 z"
       fill="currentColor"
       fill-rule="evenodd"
       id="path1-0"
       style="fill:#6699ff;stroke-width:2.2151" /></g></svg>
