<?xml version="1.0" encoding="UTF-8" standalone="no"?>
<!-- Created with Inkscape (http://www.inkscape.org/) -->

<svg
   width="41.537014mm"
   height="42.644306mm"
   viewBox="0 0 41.537014 42.644306"
   version="1.1"
   id="svg1"
   xml:space="preserve"
   xmlns="http://www.w3.org/2000/svg"
   xmlns:svg="http://www.w3.org/2000/svg"><defs
     id="defs1" /><g
     id="layer1"
     transform="translate(-113.194,-97.155665)"><path
       d="m 132.73827,117.35563 a 14.161917,14.539462 0 0 0 -3.95698,10.09992 c 0,3.64943 1.30517,6.98466 3.46072,9.54336 -7.76522,1.56213 -19.04801,-0.16116 -19.04801,-5.17568 v -9.97879 c 0,-2.48006 1.97196,-4.48881 4.392,-4.48881 h 15.15004 z m -6.42734,-2.2445 a 8.744623,8.9777473 0 1 1 0,-17.955436 8.744623,8.9777473 0 0 1 0,17.955436 z m 16.39621,24.68884 a 12.023873,12.34442 0 1 1 0,-24.68884 12.023873,12.34442 0 0 1 0,24.68884 z m -4.13627,-13.03569 a 1.8035785,1.8516606 0 0 0 -2.54903,2.61697 l 3.60714,3.70339 a 1.8035785,1.8516606 0 0 0 2.5491,0 l 7.21428,-7.40668 a 1.8035785,1.8516606 0 0 0 -2.54902,-2.61698 l -5.93976,6.09591 z"
       fill="currentColor"
       fill-rule="evenodd"
       id="path1-82"
       style="fill:#669900;stroke-width:2.2151" /></g></svg>
