<?xml version="1.0" encoding="UTF-8" standalone="no"?>
<!-- Created with Inkscape (http://www.inkscape.org/) -->

<svg
   width="30.606207mm"
   height="40.399857mm"
   viewBox="0 0 30.606207 40.399857"
   version="1.1"
   id="svg1"
   xml:space="preserve"
   xmlns="http://www.w3.org/2000/svg"
   xmlns:svg="http://www.w3.org/2000/svg"><defs
     id="defs1" /><g
     id="layer1"
     transform="translate(-64.05007,-96.223082)"><path
       d="m 94.656276,114.17861 c 0,2.91778 -1.748953,5.38665 -4.372337,6.28439 v 2.69333 c 0,4.93773 -3.935079,8.97772 -8.744595,8.97772 h -4.809596 c -0.874435,2.69332 -3.279193,4.48889 -6.121209,4.48889 -3.716451,0 -6.558469,-2.91778 -6.558469,-6.7333 0,-2.91778 1.748953,-5.38665 4.37234,-6.2844 v -14.36445 c -2.40484,-0.89775 -4.37234,-3.36662 -4.37234,-6.2844 0,-3.815526 2.842018,-6.733308 6.558469,-6.733308 3.716452,0 6.558467,2.917782 6.558467,6.733308 0,2.91778 -1.748952,5.38665 -4.59097,6.2844 v 14.36445 c 1.967583,0.67355 3.497905,2.01995 4.153712,4.03999 h 4.809596 c 2.404758,0 4.372257,-2.02004 4.372257,-4.4889 V 120.463 c -2.623386,-0.89774 -4.372257,-3.36661 -4.372257,-6.28439 0,-3.81562 2.841935,-6.73331 6.558469,-6.73331 3.716447,0 6.558463,2.91769 6.558463,6.73331 z M 70.608539,100.71198 c -1.093064,0 -2.186129,0.89775 -2.186129,2.24441 0,1.34666 0.874435,2.24441 2.186129,2.24441 1.311693,0 2.186127,-0.89775 2.186127,-2.24441 0,-1.34666 -0.874434,-2.24441 -2.186127,-2.24441 z m 17.489274,15.71104 c 1.311687,0 2.186126,-0.89775 2.186126,-2.24441 0,-1.34666 -0.874439,-2.2445 -2.186126,-2.2445 -1.311695,0 -2.186212,0.89784 -2.186212,2.2445 0,1.34666 0.874517,2.24441 2.186212,2.24441 z m -17.489274,15.71103 c 1.311693,0 2.186127,-0.89775 2.186127,-2.24441 0,-1.34666 -0.874434,-2.24441 -2.186127,-2.24441 -1.311694,0 -2.186129,0.89775 -2.186129,2.24441 0,1.34666 0.874435,2.24441 2.186129,2.24441 z"
       fill="currentColor"
       fill-rule="evenodd"
       id="path1"
       style="fill:#6699ff;stroke-width:2.2151" /></g></svg>
