<?xml version="1.0" encoding="UTF-8" standalone="no"?>
<!-- Created with Inkscape (http://www.inkscape.org/) -->

<svg
   width="38.458324mm"
   height="34.619377mm"
   viewBox="0 0 38.458324 34.619377"
   version="1.1"
   id="svg1"
   xml:space="preserve"
   xmlns="http://www.w3.org/2000/svg"
   xmlns:svg="http://www.w3.org/2000/svg"><defs
     id="defs1" /><g
     id="layer1"
     transform="translate(-110.67436,-150.39382)"><path
       d="m 132.76802,152.11649 16.08793,29.55929 a 2.1861557,2.244437 0 0 1 -1.9085,3.33742 h -34.08652 a 2.1861557,2.244437 0 0 1 -1.90859,-3.33972 l 16.09017,-29.55699 a 3.2792336,3.3666555 0 0 1 5.72336,0 z m -2.86383,7.08567 a 2.3850959,2.4486808 0 0 0 -2.36328,2.78088 l 1.12148,8.45253 a 1.2526672,1.2860624 0 0 0 2.48351,0 l 1.12148,-8.45253 a 2.3850959,2.4486808 0 0 0 -2.36319,-2.78088 z m 0,19.36955 a 2.4594253,2.5249917 0 1 0 0,-5.04997 2.4594253,2.5249917 0 0 0 0,5.04997 z"
       fill="currentColor"
       fill-rule="evenodd"
       id="path1-07"
       style="fill:#ff9900;stroke-width:2.2151" /></g></svg>
