<?xml version="1.0" encoding="UTF-8" standalone="no"?>
<!-- Created with Inkscape (http://www.inkscape.org/) -->

<svg
   width="34.978462mm"
   height="40.399891mm"
   viewBox="0 0 34.978462 40.399891"
   version="1.1"
   id="svg1"
   xml:space="preserve"
   xmlns="http://www.w3.org/2000/svg"
   xmlns:svg="http://www.w3.org/2000/svg"><defs
     id="defs1" /><g
     id="layer1"
     transform="translate(-65.227827,-149.84771)"><path
       d="m 95.833953,177.22989 v -9.42665 c 0,-3.81552 -2.841931,-6.73331 -6.558471,-6.73331 h -4.153623 l 1.748868,-1.79557 c 0.656056,-0.67355 0.656056,-1.7955 0,-2.46888 -0.656053,-0.67353 -1.748868,-0.67353 -2.404757,0 l -5.028145,5.16221 c -0.656054,0.89781 -0.656054,2.02003 0,2.69331 l 5.028145,5.1622 c 0.437093,0.44874 0.656053,0.44874 1.093064,0.44874 0.437094,0 0.874519,-0.22486 1.311693,-0.67355 0.656056,-0.67353 0.656056,-1.79556 0,-2.46894 l -1.530322,-1.57103 h 3.935077 c 1.311696,0 2.186211,0.89774 2.186211,2.24441 v 9.42664 c -2.623384,0.89774 -4.372336,3.36661 -4.372336,6.28438 0,3.81553 2.842015,6.73331 6.558462,6.73331 3.716455,0 6.558471,-2.91778 6.558471,-6.73331 0,-2.91777 -1.748953,-5.38664 -4.372337,-6.28438 z m -2.186134,8.52888 c -1.311688,0 -2.186126,-0.89784 -2.186126,-2.24451 0,-1.34664 0.874438,-2.2444 2.186126,-2.2444 1.311696,0 2.186134,0.89776 2.186134,2.2444 0,1.34667 -0.874438,2.24451 -2.186134,2.24451 z M 71.786294,149.84771 c -3.497903,0 -6.558467,2.9178 -6.558467,6.73331 0,2.9178 1.74887,5.38667 4.372257,6.28448 v 25.13767 c 0,1.34667 0.874517,2.24443 2.18621,2.24443 1.311694,0 2.186129,-0.89776 2.186129,-2.24443 V 162.8655 c 2.623387,-0.89781 4.372338,-3.36668 4.372338,-6.28448 0,-3.81551 -2.842016,-6.73331 -6.558467,-6.73331 z m 0,8.97781 c -1.093064,0 -2.18621,-0.89783 -2.18621,-2.2445 0,-1.34664 0.874517,-2.2444 2.18621,-2.2444 1.311694,0 2.186129,0.89776 2.186129,2.2444 0,1.34667 -0.874435,2.2445 -2.186129,2.2445 z"
       fill="currentColor"
       fill-rule="evenodd"
       id="path1-8"
       style="fill:#6699ff;stroke-width:2.2151" /></g></svg>
