<?xml version="1.0" encoding="UTF-8" standalone="no"?>
<!-- Created with Inkscape (http://www.inkscape.org/) -->

<svg
   width="41.511398mm"
   height="42.644306mm"
   viewBox="0 0 41.511398 42.644306"
   version="1.1"
   id="svg1"
   xml:space="preserve"
   xmlns="http://www.w3.org/2000/svg"
   xmlns:svg="http://www.w3.org/2000/svg"><defs
     id="defs1" /><g
     id="layer1"
     transform="translate(-164.43943,-95.07212)"><path
       d="m 183.98371,115.27205 a 14.161917,14.539462 0 0 0 -3.95697,10.10001 c 0,3.64943 1.30518,6.98466 3.46073,9.54327 -7.76522,1.56213 -19.04804,-0.16116 -19.04804,-5.17567 v -9.9787 c 0,-2.48015 1.97197,-4.48891 4.39202,-4.48891 h 15.15005 z m -6.42734,-2.2444 a 8.7446399,8.977765 0 1 1 0,-17.95553 8.7446399,8.977765 0 0 1 0,17.95553 z m 18.82278,12.34441 2.53822,-2.61477 a 1.7052015,1.7506608 0 0 0 -0.007,-2.48464 1.7248768,1.7708608 0 0 0 -2.43095,0.007 l -2.52722,2.59899 -2.5272,-2.59899 a 1.7226908,1.7686164 0 0 0 -2.43104,-0.007 1.7095738,1.7551497 0 0 0 -0.007,2.49134 l 2.54026,2.61028 -2.54026,2.61257 a 1.7052015,1.7506608 0 0 0 0.007,2.48456 1.7248768,1.7708608 0 0 0 2.43104,-0.007 l 2.5272,-2.59908 2.52722,2.59908 a 1.7226908,1.7686164 0 0 0 2.43095,0.007 1.7095738,1.7551497 0 0 0 0.007,-2.49135 l -2.54036,-2.60799 z m -2.42657,12.34434 a 12.023856,12.344403 0 1 1 0,-24.68875 12.023856,12.344403 0 0 1 0,24.68875 z"
       fill="currentColor"
       fill-rule="evenodd"
       id="path1-05"
       style="fill:#cc0000;stroke-width:2.2151" /></g></svg>
