<?xml version="1.0" encoding="UTF-8" standalone="no"?>
<!-- Created with Inkscape (http://www.inkscape.org/) -->

<svg
   width="34.980385mm"
   height="31.42688mm"
   viewBox="0 0 34.980385 31.42688"
   version="1.1"
   id="svg1"
   xml:space="preserve"
   xmlns="http://www.w3.org/2000/svg"
   xmlns:svg="http://www.w3.org/2000/svg"><defs
     id="defs1" /><g
     id="layer1"
     transform="translate(-74.612881,-250.70092)"><path
       d="m 92.103126,260.66847 3.84758,-3.91435 a 5.47632,5.6223146 0 0 1 7.695324,0 5.3582677,5.5011151 0 0 1 0,7.82863 L 92.103126,276.32793 80.560221,264.58505 a 5.3582677,5.5011151 0 0 1 0,-7.83313 5.47632,5.6223146 0 0 1 7.695239,0 v 0.003 z m -14.612308,7.05422 0.0064,0.008 13.820914,14.06363 a 1.1105671,1.1401739 0 0 0 1.569654,0 l 13.820904,-14.06363 0.007,-0.008 0.008,-0.008 a 9.6453198,9.9024564 0 0 0 0,-14.09502 9.8573757,10.120166 0 0 0 -13.85148,0 l -0.0068,0.008 -0.0085,0.008 -0.754376,0.77025 -0.754377,-0.76771 -0.0085,-0.008 -0.0068,-0.008 a 9.8573757,10.120166 0 0 0 -13.851487,0 9.6453198,9.9024564 0 0 0 0,14.09282 l 0.0083,0.008 z"
       fill="currentColor"
       fill-rule="evenodd"
       id="path1-68"
       style="fill:#6699ff;stroke-width:2.2151" /></g></svg>
